<svg width="158" height="84" viewBox="0 0 158 84" fill="none" xmlns="http://www.w3.org/2000/svg">
<path d="M133.227 10.5425C120.049 10.5425 109.336 21.255 109.336 34.4332C109.336 47.6113 120.049 58.3238 133.227 58.3238C146.405 58.3238 157.117 47.6113 157.117 34.4332C157.117 21.255 146.405 10.5425 133.227 10.5425ZM148.105 38.7692H143.174C141.474 42.5951 137.648 45.3158 133.227 45.3158C127.275 45.3158 122.429 40.4696 122.429 34.5182C122.429 28.5668 127.275 23.7206 133.227 23.7206C137.648 23.7206 141.474 26.4413 143.174 30.2672H148.105V38.7692Z" fill="#345C94" stroke="white" stroke-width="0.3206" stroke-miterlimit="10"/>
<path d="M74.7326 28.822C74.7326 25.1661 71.842 22.1054 68.1861 21.9354H65.2954C64.9553 21.9354 64.6152 21.9354 64.1901 21.8503C57.8986 20.9151 57.7286 11.5629 63.9351 10.3726C64.2752 10.2876 64.6152 10.2876 64.8703 10.2876H98.0282C98.3683 10.2876 98.7083 10.2876 99.1334 10.3726C105.425 11.3078 105.595 20.6601 99.3885 21.8503C99.0484 21.9354 98.7083 21.9354 98.4533 21.9354H95.1375C91.4816 22.1054 88.5909 25.1661 88.5909 28.822V56.4536C88.4209 59.9394 85.7002 62.66 82.2994 63.0001C82.2144 63.0001 82.1294 63.0001 82.0444 63.0001H81.1942C77.7083 62.8301 74.9027 60.0244 74.6476 56.5386L74.7326 28.822Z" fill="#345C94" stroke="white" stroke-width="0.3206" stroke-miterlimit="10"/>
<path d="M12.583 57.9839C9.26722 57.8139 6.63159 55.0932 6.63159 51.7775V16.239C6.80163 12.9232 9.52228 10.2876 12.8381 10.2876C16.3239 10.2876 19.0445 13.0933 19.0445 16.4941V41.405C19.0445 44.7208 21.6802 47.4414 24.996 47.6115H29.502C32.8178 47.4414 35.4534 44.7208 35.4534 41.405V16.4941C35.4534 15.6439 35.6235 14.7937 35.9636 14.1135C36.0486 13.8584 36.2186 13.6034 36.3036 13.4333C36.4737 13.0933 36.6437 12.8382 36.8988 12.5831C36.9838 12.4131 37.1538 12.2431 37.3239 12.158C38.004 11.4779 38.9393 10.8827 39.8745 10.6277C39.9595 10.6277 40.0445 10.5427 40.1296 10.5427C40.2146 10.5427 40.3846 10.4576 40.4696 10.4576C40.5547 10.4576 40.6397 10.4576 40.8097 10.3726C40.8947 10.3726 40.9798 10.3726 41.0648 10.3726C41.2348 10.3726 41.4899 10.3726 41.6599 10.3726C41.83 10.3726 42 10.3726 42.17 10.3726H42.2551C42.4251 10.3726 42.5951 10.3726 42.6802 10.4576C42.7652 10.4576 42.8502 10.4576 42.8502 10.4576C42.9352 10.4576 42.9352 10.4576 43.0202 10.4576C43.1053 10.4576 43.1903 10.5427 43.3603 10.5427C43.4453 10.5427 43.5304 10.6277 43.7004 10.6277C43.7854 10.6277 43.8704 10.7127 44.0405 10.7127C44.1255 10.7127 44.2105 10.7977 44.3806 10.7977C44.4656 10.7977 44.5506 10.8827 44.6356 10.8827C44.7206 10.8827 44.8057 10.9678 44.8907 10.9678C44.9757 11.0528 45.0607 11.0528 45.1457 11.1378C45.2308 11.1378 45.2308 11.2228 45.3158 11.2228C45.4008 11.3078 45.4858 11.3929 45.5708 11.3929L45.6559 11.4779C45.7409 11.5629 45.9109 11.6479 45.9959 11.7329C46.081 11.818 46.166 11.903 46.251 11.903C46.421 12.073 46.5061 12.158 46.6761 12.3281C47.0162 12.7532 47.2712 13.1783 47.5263 13.6034C47.6113 13.7734 47.6964 13.9435 47.7814 14.1985C48.0364 14.8787 48.1215 15.5588 48.1215 16.324V46.1661C48.1215 46.7613 48.5466 47.1864 49.1417 47.1864C52.5425 47.2714 55.2632 50.077 55.2632 53.4779V59.3443C55.2632 62.8301 52.4575 65.6357 48.9717 65.6357C45.5708 65.6357 42.8502 62.9151 42.6802 59.5993C42.6802 59.5993 42.6802 59.5993 42.6802 59.5143C42.5951 58.5791 41.83 57.8139 40.8947 57.8139L12.583 57.9839Z" fill="#345C94" stroke="white" stroke-width="0.3206" stroke-miterlimit="10"/>
<path d="M81.6194 49.3118V69.0365" stroke="#CECDCD" stroke-width="0.4505" stroke-miterlimit="10"/>
<path d="M81.6194 24.656V44.4657" stroke="white" stroke-width="0.4505" stroke-miterlimit="10"/>
<path d="M12.9232 0.425049V68.6113" stroke="#CDCDCC" stroke-width="0.4505" stroke-miterlimit="10"/>
<path d="M12.2427 1.19028L12.9229 0.51012L13.518 1.19028V0.595139L12.9229 0L12.2427 0.595139V1.19028Z" fill="#CDCDCC"/>
<path d="M62.4898 52.8826H0" stroke="#CECDCD" stroke-width="0.4505" stroke-miterlimit="10"/>
<path d="M61.7246 52.2874L62.3198 52.8825L61.7246 53.5627H62.2347L62.9149 52.8825L62.2347 52.2874H61.7246Z" fill="#CECDCD"/>
<path d="M81.6194 0.0852051V19.8949" stroke="#CECDCD" stroke-width="0.4505" stroke-miterlimit="10"/>
<path d="M81.6194 21.8501V22.7003" stroke="#CECDCD" stroke-width="0.4505" stroke-miterlimit="10" stroke-linecap="round"/>
<path d="M81.6194 46.761V47.5262" stroke="#CECDCD" stroke-width="0.4505" stroke-miterlimit="10" stroke-linecap="round"/>
<path d="M133.227 52.9676V15.8137" stroke="#CECDCD" stroke-width="0.4809" stroke-miterlimit="10"/>
<path d="M115.542 34.4333H150.911" stroke="#CECDCD" stroke-width="0.4809" stroke-miterlimit="10"/>
<path d="M113.247 14.7085L124.64 26.1012" stroke="#CECDCD" stroke-width="0.4809" stroke-miterlimit="10"/>
<path d="M141.303 42.7651L152.781 54.2429" stroke="#CECDCD" stroke-width="0.4809" stroke-miterlimit="10"/>
<path d="M153.206 14.6235L141.729 26.0162" stroke="#CECDCD" stroke-width="0.4809" stroke-miterlimit="10"/>
<path d="M125.15 42.6802L113.672 54.1579" stroke="#CECDCD" stroke-width="0.4809" stroke-miterlimit="10"/>
<path d="M12.0729 81.2796V83.235H11.2227V82.0448H6.63159V77.0286H7.56681V81.2796H10.3725V77.0286H11.3077V81.2796H12.0729Z" fill="#212121"/>
<path d="M17.5142 78.1337C17.3441 77.7086 17.0041 77.4535 16.664 77.1985C16.3239 77.0284 15.8138 76.8584 15.3887 76.8584C14.8786 76.8584 14.4535 76.9434 14.1134 77.1985C13.7733 77.4535 13.4332 77.7086 13.1782 78.1337C12.9231 78.5588 12.8381 78.9839 12.8381 79.494C12.8381 80.0042 12.9231 80.4292 13.1782 80.8543C13.4332 81.1944 13.6883 81.5345 14.1134 81.7896C14.5385 82.0446 14.9636 82.1296 15.5587 82.1296C15.9838 82.1296 16.3239 82.0446 16.664 81.9596C17.0041 81.7896 17.2591 81.6195 17.5142 81.3645L17.0041 80.7693C16.834 80.9394 16.579 81.1094 16.3239 81.1944C16.0688 81.2795 15.8138 81.3645 15.4737 81.3645C15.1336 81.3645 14.7935 81.2795 14.5385 81.1944C14.2834 81.0244 14.0284 80.8544 13.8583 80.5993C13.7733 80.4293 13.6883 80.1742 13.6033 79.9191H17.6842C17.6842 79.9191 17.6842 79.8341 17.6842 79.7491C17.6842 79.6641 17.6842 79.6641 17.6842 79.579C17.8543 78.9839 17.7692 78.5588 17.5142 78.1337ZM13.6883 79.1539C13.6883 78.8989 13.7733 78.7289 13.8583 78.4738C14.0284 78.2187 14.1984 78.0487 14.4535 77.8786C14.7085 77.7086 14.9636 77.7086 15.3037 77.7086C15.6437 77.7086 15.8988 77.7936 16.1539 77.8786C16.4089 78.0487 16.579 78.2187 16.749 78.4738C16.834 78.6438 16.919 78.8989 16.919 79.1539H13.6883Z" fill="#212121"/>
<path d="M19.2995 82.0446V76.9434H20.2347V79.0689H23.1254V76.9434H23.9756V82.0446H23.0404V79.9191H20.1497V82.0446H19.2995Z" fill="#212121"/>
<path d="M29.502 77.0286V77.7938H27.7166V82.0448H26.7814V77.7938H24.9109V77.0286H29.502Z" fill="#212121"/>
<path d="M35.3684 78.1337C35.1134 77.7936 34.8583 77.4535 34.4332 77.1985C34.0081 77.0284 33.583 76.8584 33.0729 76.8584C32.6478 76.8584 32.2227 76.9434 31.8826 77.1135C31.6275 77.2835 31.3725 77.4535 31.2024 77.7086V76.9434H30.3522V83.8301H31.2875V81.1944C31.4575 81.4495 31.7126 81.6195 31.8826 81.7045C32.2227 81.8746 32.6478 81.9596 32.9879 81.9596C33.498 81.9596 33.9231 81.8746 34.3482 81.6195C34.6883 81.3645 35.0283 81.1094 35.2834 80.6843C35.5385 80.2592 35.6235 79.8341 35.6235 79.324C35.7085 78.9839 35.6235 78.5588 35.3684 78.1337ZM34.6032 80.4292C34.4332 80.6843 34.2632 80.9394 34.0081 81.0244C33.753 81.1944 33.413 81.1944 33.1579 81.1944C32.8178 81.1944 32.5628 81.1094 32.3077 81.0244C32.0526 80.8544 31.7976 80.6843 31.7126 80.4292C31.5425 80.1742 31.4575 79.8341 31.4575 79.494C31.4575 79.1539 31.5425 78.8139 31.7126 78.5588C31.8826 78.3037 32.0526 78.0487 32.3077 77.9637C32.5628 77.7936 32.8178 77.7086 33.1579 77.7086C33.498 77.7086 33.753 77.7936 34.0081 77.9637C34.2632 78.1337 34.4332 78.3037 34.6032 78.5588C34.7733 78.8139 34.8583 79.1539 34.8583 79.494C34.7733 79.8341 34.6883 80.1742 34.6032 80.4292Z" fill="#212121"/>
<path d="M43.3603 77.0286V77.7938H41.5749V82.0448H40.6397V77.7938H38.7692V77.0286H43.3603Z" fill="#212121"/>
<path d="M48.3767 78.1337C48.1216 77.7086 47.8666 77.4535 47.5265 77.1985C47.1864 77.0284 46.6763 76.8584 46.2512 76.8584C45.8261 76.8584 45.3159 76.9434 44.9759 77.1985C44.6358 77.4535 44.2957 77.7086 44.0406 78.1337C43.7856 78.5588 43.7006 78.9839 43.7006 79.494C43.7006 80.0042 43.7856 80.4292 44.0406 80.8543C44.2957 81.1944 44.5508 81.5345 44.9759 81.7896C45.401 82.0446 45.8261 82.1296 46.4212 82.1296C46.8463 82.1296 47.1864 82.0446 47.5265 81.9596C47.8666 81.7896 48.1216 81.6195 48.3767 81.3645L47.8666 80.7693C47.6965 80.9394 47.4415 81.1094 47.1864 81.1944C46.9313 81.2795 46.6763 81.3645 46.3362 81.3645C45.9961 81.3645 45.656 81.2795 45.401 81.1944C45.1459 81.0244 44.8908 80.8544 44.7208 80.5993C44.6358 80.4293 44.5508 80.1742 44.5508 79.9191H48.6317C48.6317 79.9191 48.6317 79.8341 48.6317 79.7491V79.579C48.7168 78.9839 48.5467 78.5588 48.3767 78.1337ZM44.5508 79.1539C44.5508 78.8989 44.6358 78.7289 44.7208 78.4738C44.8908 78.2187 45.0609 78.0487 45.3159 77.8786C45.571 77.7086 45.8261 77.7086 46.1661 77.7086C46.5062 77.7086 46.7613 77.7936 47.0164 77.8786C47.2714 78.0487 47.4415 78.2187 47.6115 78.4738C47.6965 78.6438 47.7815 78.8989 47.7815 79.1539H44.5508Z" fill="#212121"/>
<path d="M54.158 82.0448H53.1377L51.6924 80.0893L50.162 82.0448H49.1418L51.1823 79.4942L49.2268 77.0286H50.247L51.6924 78.814L53.0527 77.0286H54.073L52.2025 79.4942L54.158 82.0448Z" fill="#212121"/>
<path d="M55.093 82.0446V76.9434H56.0282V79.0689H58.9189V76.9434H59.8541V82.0446H58.9189V79.9191H56.0282V82.0446H55.093Z" fill="#212121"/>
<path d="M61.6395 82.0446V76.9434H62.5747V80.5992L65.7205 76.9434H66.5707V82.0446H65.6355V78.3887L62.5747 82.0446H61.6395Z" fill="#212121"/>
<path d="M72.3524 77.0284V82.0446H71.4172V80.0041C71.1621 80.0891 70.907 80.1741 70.652 80.2591C70.3969 80.3442 70.0568 80.3442 69.8018 80.3442C69.2066 80.3442 68.6965 80.1741 68.3564 79.9191C68.0163 79.664 67.8463 79.1539 67.8463 78.5587V76.9434H68.7815V78.5587C68.7815 78.8988 68.8666 79.1539 69.1216 79.3239C69.3767 79.494 69.6317 79.579 70.0568 79.579C70.3119 79.579 70.567 79.579 70.822 79.494C71.0771 79.4089 71.3321 79.3239 71.5022 79.2389V76.9434H72.3524V77.0284Z" fill="#212121"/>
<path d="M78.3885 78.1337C78.2185 77.7086 77.8784 77.4535 77.5383 77.1985C77.1982 77.0284 76.7731 76.8584 76.263 76.8584C75.7529 76.8584 75.3278 76.9434 74.9877 77.1985C74.5626 77.4535 74.3075 77.7086 74.0525 78.1337C73.7974 78.5588 73.7124 78.9839 73.7124 79.494C73.7124 80.0042 73.7974 80.4292 74.0525 80.8543C74.3075 81.1944 74.5626 81.5345 74.9877 81.7896C75.4128 82.0446 75.9229 82.1296 76.433 82.1296C76.8581 82.1296 77.1982 82.0446 77.6233 81.9596C77.9634 81.7896 78.2185 81.6195 78.4735 81.3645L77.9634 80.7693C77.7934 80.9394 77.5383 81.1094 77.2832 81.1944C77.0282 81.2795 76.7731 81.3645 76.433 81.3645C76.093 81.3645 75.7529 81.2795 75.4978 81.1944C75.2428 81.0244 74.9877 80.8544 74.8177 80.5993C74.7326 80.4293 74.6476 80.1742 74.6476 79.9191H78.7286C78.7286 79.9191 78.7286 79.8341 78.7286 79.7491V79.579C78.6436 78.9839 78.5586 78.5588 78.3885 78.1337ZM74.5626 79.1539C74.5626 78.8989 74.6476 78.7289 74.7326 78.4738C74.9027 78.2187 75.0727 78.0487 75.3278 77.8786C75.5828 77.7086 75.8379 77.7086 76.178 77.7086C76.5181 77.7086 76.7731 77.7936 77.0282 77.8786C77.2832 78.0487 77.4533 78.2187 77.6233 78.4738C77.7084 78.6438 77.7934 78.8989 77.7934 79.1539H74.5626Z" fill="#212121"/>
<path d="M82.2995 82.1296C81.7894 82.1296 81.3643 82.0446 80.9392 81.7896C80.5141 81.5345 80.259 81.2794 80.004 80.8543C79.7489 80.4292 79.6639 80.0042 79.6639 79.494C79.6639 78.9839 79.7489 78.5588 80.004 78.1337C80.259 77.7086 80.5141 77.4535 80.9392 77.1985C81.3643 76.9434 81.7894 76.8584 82.2995 76.8584C82.7246 76.8584 83.1497 76.9434 83.4898 77.1135C83.8299 77.2835 84.17 77.5386 84.34 77.8786L83.6598 78.3037C83.4898 78.0487 83.3197 77.8786 83.0647 77.7936C82.8096 77.7086 82.5546 77.6236 82.2995 77.6236C81.9594 77.6236 81.7044 77.7086 81.4493 77.8786C81.1942 78.0487 80.9392 78.2187 80.8542 78.4738C80.6841 78.7289 80.5991 79.0689 80.5991 79.409C80.5991 79.7491 80.6841 80.0892 80.8542 80.3442C81.0242 80.5993 81.1942 80.8544 81.4493 80.9394C81.7044 81.1094 82.0445 81.1944 82.2995 81.1944C82.5546 81.1944 82.8096 81.1094 83.0647 81.0244C83.3197 80.9394 83.4898 80.6843 83.6598 80.5143L84.34 80.9394C84.17 81.2795 83.8299 81.5345 83.4898 81.7896C83.1497 82.0446 82.7246 82.1296 82.2995 82.1296Z" fill="#212121"/>
<path d="M90.2914 82.0448H89.1861L87.4857 79.9193H86.4655V82.0448H85.5303V77.0286H86.4655V79.1541H87.5708L89.1861 77.0286H90.1214L88.2509 79.4091L90.2914 82.0448Z" fill="#212121"/>
<path d="M93.2672 82.1296C92.757 82.1296 92.3319 82.0446 91.9068 81.7896C91.4817 81.5345 91.2267 81.2794 90.9716 80.8543C90.7166 80.4292 90.6315 80.0042 90.6315 79.494C90.6315 78.9839 90.7166 78.5588 90.9716 78.1337C91.2267 77.7086 91.4817 77.4535 91.9068 77.1985C92.3319 76.9434 92.757 76.8584 93.2672 76.8584C93.7773 76.8584 94.2024 76.9434 94.6275 77.1985C95.0526 77.4535 95.3076 77.7086 95.5627 78.1337C95.8178 78.5588 95.9028 78.9839 95.9028 79.494C95.9028 80.0042 95.8178 80.4292 95.5627 80.8543C95.3076 81.2794 95.0526 81.5345 94.6275 81.7896C94.2024 81.9596 93.7773 82.1296 93.2672 82.1296ZM93.2672 81.2794C93.6072 81.2794 93.8623 81.1944 94.1174 81.0244C94.3724 80.8544 94.5425 80.6843 94.7125 80.4292C94.8825 80.1742 94.9676 79.8341 94.9676 79.494C94.9676 79.1539 94.8825 78.8139 94.7125 78.5588C94.5425 78.3037 94.3724 78.0487 94.1174 77.9637C93.8623 77.7936 93.6072 77.7086 93.2672 77.7086C92.9271 77.7086 92.672 77.7936 92.417 77.9637C92.1619 78.1337 91.9919 78.3037 91.8218 78.5588C91.6518 78.8139 91.5668 79.1539 91.5668 79.494C91.5668 79.8341 91.6518 80.1742 91.8218 80.4292C91.9919 80.6843 92.1619 80.9394 92.417 81.0244C92.672 81.1944 92.9271 81.2794 93.2672 81.2794Z" fill="#212121"/>
<path d="M100.919 77.0286V77.7938H98.1133V82.0448H97.178V77.0286H100.919Z" fill="#212121"/>
<path d="M103.81 82.1296C103.299 82.1296 102.874 82.0446 102.449 81.7896C102.024 81.5345 101.769 81.2794 101.514 80.8543C101.259 80.4292 101.174 80.0042 101.174 79.494C101.174 78.9839 101.259 78.5588 101.514 78.1337C101.769 77.7086 102.024 77.4535 102.449 77.1985C102.874 76.9434 103.299 76.8584 103.81 76.8584C104.32 76.8584 104.745 76.9434 105.17 77.1985C105.595 77.4535 105.85 77.7086 106.105 78.1337C106.36 78.5588 106.445 78.9839 106.445 79.494C106.445 80.0042 106.36 80.4292 106.105 80.8543C105.85 81.2794 105.595 81.5345 105.17 81.7896C104.745 81.9596 104.32 82.1296 103.81 82.1296ZM103.81 81.2794C104.15 81.2794 104.405 81.1944 104.66 81.0244C104.915 80.8544 105.085 80.6843 105.255 80.4292C105.425 80.1742 105.51 79.8341 105.51 79.494C105.51 79.1539 105.425 78.8139 105.255 78.5588C105.085 78.3037 104.915 78.0487 104.66 77.9637C104.405 77.7936 104.15 77.7086 103.81 77.7086C103.469 77.7086 103.214 77.7936 102.959 77.9637C102.704 78.1337 102.534 78.3037 102.364 78.5588C102.194 78.8139 102.109 79.1539 102.109 79.494C102.109 79.8341 102.194 80.1742 102.364 80.4292C102.534 80.6843 102.704 80.9394 102.959 81.0244C103.214 81.1944 103.469 81.2794 103.81 81.2794Z" fill="#212121"/>
<path d="M112.482 82.1296C111.971 82.1296 111.546 82.0446 111.121 81.7896C110.696 81.5345 110.441 81.2794 110.186 80.8543C109.931 80.4292 109.846 80.0042 109.846 79.494C109.846 78.9839 109.931 78.5588 110.186 78.1337C110.441 77.7086 110.696 77.4535 111.121 77.1985C111.546 76.9434 111.971 76.8584 112.482 76.8584C112.992 76.8584 113.417 76.9434 113.842 77.1985C114.267 77.4535 114.522 77.7086 114.777 78.1337C115.032 78.5588 115.117 78.9839 115.117 79.494C115.117 80.0042 115.032 80.4292 114.777 80.8543C114.522 81.2794 114.267 81.5345 113.842 81.7896C113.502 81.9596 112.992 82.1296 112.482 82.1296ZM112.482 81.2794C112.822 81.2794 113.077 81.1944 113.332 81.0244C113.587 80.8544 113.757 80.6843 113.927 80.4292C114.097 80.1742 114.182 79.8341 114.182 79.494C114.182 79.1539 114.097 78.8139 113.927 78.5588C113.757 78.3037 113.587 78.0487 113.332 77.9637C113.077 77.7936 112.822 77.7086 112.482 77.7086C112.141 77.7086 111.886 77.7936 111.631 77.9637C111.376 78.1337 111.206 78.3037 111.036 78.5588C110.866 78.8139 110.781 79.1539 110.781 79.494C110.781 79.8341 110.866 80.1742 111.036 80.4292C111.206 80.6843 111.376 80.9394 111.631 81.0244C111.886 81.1944 112.227 81.2794 112.482 81.2794Z" fill="#212121"/>
<path d="M121.154 78.4736C120.984 78.1335 120.644 77.7935 120.304 77.6234C119.964 77.4534 119.539 77.2833 119.029 77.2833C118.688 77.2833 118.263 77.3683 118.008 77.4534C117.668 77.6234 117.413 77.7935 117.243 78.0485C117.158 78.1335 117.158 78.2186 117.073 78.2186C117.073 77.9635 117.158 77.7084 117.243 77.4534C117.328 77.1133 117.498 76.9432 117.583 76.6882C117.753 76.5181 117.923 76.3481 118.093 76.2631C118.263 76.1781 118.433 76.093 118.603 76.008C118.773 75.923 118.943 75.923 119.029 75.923L121.154 75.4979L121.069 74.6477L118.773 75.1578C118.433 75.2428 118.178 75.3279 117.838 75.4129C117.583 75.5829 117.328 75.753 117.073 75.923C116.903 76.093 116.648 76.3481 116.563 76.6032C116.393 76.8582 116.308 77.1983 116.223 77.5384C116.138 77.8785 116.138 78.3036 116.138 78.7287C116.138 79.2388 116.223 79.7489 116.308 80.174C116.393 80.5991 116.563 80.9392 116.818 81.1943C117.073 81.4493 117.328 81.6194 117.668 81.7894C118.008 81.9594 118.348 81.9594 118.773 81.9594C119.284 81.9594 119.794 81.8744 120.219 81.6194C120.644 81.4493 120.899 81.1092 121.154 80.7692C121.409 80.4291 121.494 80.004 121.494 79.4939C121.494 79.2388 121.409 78.8137 121.154 78.4736ZM120.304 80.5991C120.134 80.8542 119.964 81.0242 119.709 81.1943C119.454 81.3643 119.199 81.3643 118.858 81.3643C118.518 81.3643 118.263 81.2793 118.008 81.1092C117.753 80.9392 117.583 80.7692 117.413 80.5141C117.243 80.259 117.158 80.004 117.158 79.6639C117.158 79.3238 117.243 79.0688 117.328 78.8987C117.498 78.6437 117.668 78.4736 117.923 78.3886C118.178 78.2185 118.433 78.2186 118.773 78.2186C119.114 78.2186 119.369 78.3036 119.624 78.3886C119.879 78.5586 120.049 78.7287 120.219 78.9837C120.389 79.2388 120.389 79.4939 120.389 79.7489C120.559 80.004 120.474 80.3441 120.304 80.5991Z" fill="#212121"/>
<path d="M127.19 77.0286L124.725 82.6399C124.555 82.98 124.385 83.3201 124.215 83.4901C124.045 83.6601 123.875 83.8302 123.62 83.9152C123.45 84.0002 123.194 84.0002 122.939 84.0002C122.684 84.0002 122.429 83.9152 122.259 83.9152C122.004 83.8302 121.834 83.7452 121.664 83.5751L122.089 82.895C122.174 82.98 122.344 83.065 122.514 83.15C122.684 83.2351 122.854 83.235 123.024 83.235C123.28 83.235 123.45 83.15 123.535 83.065C123.705 82.98 123.79 82.7249 123.96 82.4699L124.13 82.1298L121.919 77.1136H122.854L124.64 81.1946L126.425 77.1136H127.19V77.0286Z" fill="#212121"/>
<path d="M132.121 77.0284V82.0446H131.186V80.0041C130.931 80.0891 130.676 80.1741 130.421 80.2591C130.166 80.3442 129.826 80.3442 129.571 80.3442C128.976 80.3442 128.466 80.1741 128.125 79.9191C127.785 79.664 127.615 79.1539 127.615 78.5587V76.9434H128.551V78.5587C128.551 78.8988 128.636 79.1539 128.891 79.3239C129.146 79.494 129.401 79.579 129.826 79.579C130.081 79.579 130.336 79.579 130.591 79.494C130.846 79.4089 131.101 79.3239 131.271 79.2389V76.9434H132.121V77.0284Z" fill="#212121"/>
<path d="M138.158 78.1337C137.988 77.7086 137.648 77.4535 137.308 77.1985C136.968 77.0284 136.542 76.8584 136.032 76.8584C135.522 76.8584 135.097 76.9434 134.757 77.1985C134.417 77.4535 134.077 77.7086 133.822 78.1337C133.567 78.5588 133.482 78.9839 133.482 79.494C133.482 80.0042 133.567 80.4292 133.822 80.8543C134.077 81.1944 134.332 81.5345 134.757 81.7896C135.182 82.0446 135.607 82.1296 136.202 82.1296C136.627 82.1296 136.968 82.0446 137.308 81.9596C137.648 81.7896 137.903 81.6195 138.158 81.3645L137.648 80.7693C137.478 80.9394 137.223 81.1094 136.968 81.1944C136.713 81.2795 136.457 81.3645 136.117 81.3645C135.777 81.3645 135.437 81.2795 135.182 81.1944C134.927 81.0244 134.672 80.8544 134.502 80.5993C134.417 80.4293 134.332 80.1742 134.247 79.9191H138.328C138.328 79.9191 138.328 79.8341 138.328 79.7491C138.328 79.6641 138.328 79.6641 138.328 79.579C138.498 78.9839 138.413 78.5588 138.158 78.1337ZM134.332 79.1539C134.332 78.8989 134.417 78.7289 134.502 78.4738C134.672 78.2187 134.842 78.0487 135.097 77.8786C135.352 77.7086 135.607 77.7086 135.947 77.7086C136.287 77.7086 136.542 77.7936 136.798 77.8786C137.053 78.0487 137.223 78.2187 137.393 78.4738C137.478 78.6438 137.563 78.8989 137.563 79.1539H134.332Z" fill="#212121"/>
<path d="M139.943 82.0446V76.9434H140.879V79.0689H143.769V76.9434H144.705V82.0446H143.769V79.9191H140.879V82.0446H139.943Z" fill="#212121"/>
<path d="M146.405 82.0446V76.9434H147.34V80.5992L150.486 76.9434H151.336V82.0446H150.401V78.3887L147.34 82.0446H146.405Z" fill="#212121"/>
<path d="M154.907 77.0286C154.227 77.0286 153.717 77.1986 153.292 77.4537C152.867 77.7937 152.696 78.2189 152.696 78.814C152.696 79.3241 152.867 79.7492 153.292 80.0893C153.462 80.1743 153.632 80.3444 153.887 80.4294L152.696 82.1298H153.717L154.822 80.5144H154.907H156.352V82.1298H157.203V77.1136H154.907V77.0286ZM154.907 79.7492C154.057 79.7492 153.632 79.4091 153.632 78.729C153.632 78.3889 153.717 78.1338 153.972 77.9638C154.227 77.7938 154.482 77.7087 154.907 77.7087H156.267V79.7492H154.907Z" fill="#212121"/>
</svg>
