<?xml version="1.0" encoding="utf-8"?>
<!-- Generator: Adobe Illustrator 26.3.1, SVG Export Plug-In . SVG Version: 6.00 Build 0)  -->
<svg version="1.1" id="Слой_1" xmlns="http://www.w3.org/2000/svg" xmlns:xlink="http://www.w3.org/1999/xlink" x="0px" y="0px"
	 viewBox="0 0 2904.89 1191.11" style="enable-background:new 0 0 2904.89 1191.11;" xml:space="preserve">
<style type="text/css">
	.st0{fill:#283583;}
	.st1{fill:none;}
	.st2{fill:#E62E35;}
	.st3{fill:#EDEDED;stroke:#273583;stroke-miterlimit:10;}
	.st4{fill:#FFFFFF;}
	.st5{fill:#273583;}
</style>
<g>
	<g>
		<path class="st0" d="M1226.36,768.29h56.71l-39.45,197.26h-133.16l16.03-84.45H780.67l86.31-431.52h143.02l-63.5,318.71h136.85
			l63.5-318.71h143.02L1226.36,768.29z"/>
		<path class="st0" d="M1718.91,562.39h-128.22l-62.26,318.71h-143.02l62.26-318.71h-124.52l22.19-112.81h395.76L1718.91,562.39z"/>
		<path class="st0" d="M1819.08,866.61c-33.08-16.23-58.56-38.93-76.44-68.12c-17.87-29.17-26.82-62.67-26.82-100.48
			c0-50.13,11.61-94.83,34.83-134.08c23.21-39.24,55.48-69.76,96.78-91.55c41.3-21.78,88.04-32.67,140.24-32.67
			c43.97,0,82.5,8.12,115.58,24.35c33.08,16.24,58.56,38.94,76.44,68.12c17.87,29.19,26.82,62.68,26.82,100.48
			c0,50.14-11.62,94.84-34.83,134.08c-23.22,39.25-55.48,69.76-96.78,91.54c-41.3,21.79-88.06,32.67-140.24,32.67
			C1890.69,890.96,1852.16,882.84,1819.08,866.61z M2007.1,755.34c17.05-11.91,30.1-27.94,39.14-48.08
			c9.03-20.13,13.56-42.12,13.56-65.96c0-25.48-7.51-45.82-22.5-61.03c-15.01-15.2-35.66-22.81-61.96-22.81
			c-23.02,0-43.05,5.96-60.1,17.88c-17.06,11.92-30.11,27.95-39.14,48.08c-9.05,20.14-13.56,42.13-13.56,65.96
			c0,25.49,7.49,45.83,22.5,61.03c15,15.21,35.65,22.81,61.96,22.81C1970.01,773.22,1990.04,767.27,2007.1,755.34z"/>
	</g>
	<g>
		<path class="st1" d="M1873.81,169.54c95.15,5.81,159.29,12.41,178.2,14.47C1994.93,177.45,1935.39,172.6,1873.81,169.54z"/>
		<path class="st2" d="M239.24,938.33c0.13-0.15,0.27-0.29,0.4-0.43c0,0-0.49-0.31-1.4-0.88
			C238.58,937.46,238.9,937.89,239.24,938.33z"/>
		<path class="st3" d="M200.54,445.1c475.55-308.61,1305.79-298,1673.27-275.56c61.58,3.07,121.12,7.92,178.2,14.47
			c3.83,0.42,5.83,0.65,5.83,0.65c-139.64-24.11-291.7-40.25-451.73-46.8c-53.19-2.18-107.25-3.3-162.04-3.3
			c-56.08,0-111.4,1.17-165.8,3.45c-109.33,4.58-214.9,13.65-315.32,26.67c-151.2,19.6-290.71,48.16-413.64,83.95
			C221.11,344.17,10.89,491.11,10.89,655.92c0,104.09,83.9,201.04,228.35,282.42c0,0-5.04-3.29-13.21-9.51
			C158.15,881.63-127.83,658.2,200.54,445.1z"/>
		<path class="st4" d="M226.03,928.82c8.17,6.22,13.21,9.51,13.21,9.51c-0.34-0.44-0.66-0.88-0.99-1.32
			C236.19,935.7,231.94,932.93,226.03,928.82z"/>
		<path class="st5" d="M237.83,936.47c0.6,0.48,1.2,0.96,1.81,1.43c-1.98-2.27-3.91-4.52-5.84-6.78
			C235.13,932.9,236.48,934.68,237.83,936.47z"/>
		<path class="st5" d="M262.12,465.68c226.67-157.19,590.01-239.37,1007.45-271.55c10.74-1.35,21.51-2.68,32.33-3.94
			c33.72-3.95,67.83-7.46,102.29-10.51c58.62-5.19,116.46-8.9,173.26-11.19c102.64-4.15,201.88-3.64,296.35,1.06
			C1506.33,147.1,676.09,136.49,200.54,445.1c-328.36,213.1-42.38,436.53,25.49,483.72C167.05,883.94-55.85,686.19,262.12,465.68z"
			/>
		<path class="st5" d="M2057.84,184.66c0,0-2-0.23-5.83-0.65C2053.95,184.23,2055.91,184.43,2057.84,184.66z"/>
		<path class="st5" d="M238.25,937.02c0.9,0.58,1.4,0.88,1.4,0.88c-0.61-0.47-1.2-0.95-1.81-1.43
			C237.97,936.65,238.11,936.83,238.25,937.02z"/>
		<path class="st2" d="M262.12,465.68c-317.98,220.52-95.07,418.27-36.09,463.14c5.91,4.11,10.17,6.88,12.22,8.2
			c-0.14-0.18-0.27-0.37-0.41-0.55c-61.59-48.41-97.84-103.77-102.93-164.58c-0.13-1.62-0.22-3.23-0.31-4.84
			c-8.39-149.3,172.51-298.88,463.11-411.59c72.69-28.19,152.27-54.05,237.44-77.05c9.43-2.55,18.91-5.07,28.48-7.54
			c125.1-32.36,261.67-58.53,405.95-76.74C852.13,226.31,488.79,308.49,262.12,465.68z"/>
	</g>
	<g>
		<path class="st1" d="M1024.63,1139.15c-95.15-5.81-159.29-12.41-178.2-14.47C903.52,1131.23,963.06,1136.08,1024.63,1139.15z"/>
		<path class="st2" d="M2659.2,370.36c-0.13,0.14-0.27,0.29-0.4,0.43c0,0,0.49,0.3,1.4,0.88
			C2659.86,371.23,2659.54,370.8,2659.2,370.36z"/>
		<path class="st2" d="M2697.91,863.59c-475.55,308.61-1305.79,298-1673.27,275.56c-61.58-3.07-121.12-7.92-178.2-14.47
			c-3.83-0.42-5.83-0.65-5.83-0.65c139.64,24.11,291.7,40.25,451.73,46.8c53.19,2.18,107.25,3.3,162.04,3.3
			c56.08,0,111.4-1.17,165.8-3.45c109.33-4.58,214.9-13.65,315.32-26.67c151.2-19.6,290.71-48.16,413.64-83.95
			c328.2-95.54,538.42-242.48,538.42-407.28c0-104.09-83.9-201.04-228.35-282.42c0,0,5.04,3.29,13.21,9.51
			C2740.29,427.06,3026.27,650.49,2697.91,863.59z"/>
		<path class="st4" d="M2672.41,379.87c-8.17-6.22-13.21-9.51-13.21-9.51c0.34,0.44,0.66,0.88,0.99,1.32
			C2662.25,372.98,2666.5,375.76,2672.41,379.87z"/>
		<path class="st5" d="M2660.61,372.22c-0.61-0.48-1.2-0.96-1.81-1.43c1.98,2.27,3.91,4.52,5.84,6.78
			C2663.32,375.79,2661.97,374.01,2660.61,372.22z"/>
		<path class="st5" d="M2636.32,843.01c-226.67,157.19-590.01,239.37-1007.45,271.55c-10.74,1.35-21.51,2.68-32.33,3.94
			c-33.72,3.95-67.83,7.46-102.29,10.51c-58.62,5.19-116.46,8.9-173.26,11.19c-102.64,4.15-201.88,3.64-296.35-1.06
			c367.49,22.44,1197.73,33.05,1673.27-275.56c328.36-213.1,42.38-436.53-25.49-483.72C2731.39,424.74,2954.3,622.5,2636.32,843.01z
			"/>
		<path class="st5" d="M840.61,1124.03c0,0,2,0.23,5.83,0.65C844.5,1124.46,842.53,1124.25,840.61,1124.03z"/>
		<path class="st5" d="M2660.2,371.67c-0.9-0.58-1.4-0.88-1.4-0.88c0.61,0.47,1.2,0.95,1.81,1.43
			C2660.47,372.04,2660.34,371.86,2660.2,371.67z"/>
		<path class="st3" d="M2672.41,379.87c-5.91-4.11-10.16-6.88-12.22-8.2c0.14,0.18,0.27,0.37,0.41,0.55
			c61.59,48.41,97.84,103.77,102.93,164.58c0.13,1.62,0.22,3.23,0.31,4.84c8.39,149.3-172.51,298.88-463.11,411.59
			c-72.69,28.19-152.27,54.05-237.44,77.05c-9.43,2.55-18.91,5.07-28.48,7.54c-125.1,32.36-261.67,58.53-405.95,76.74
			c417.44-32.18,780.78-114.36,1007.45-271.55C2954.3,622.5,2731.39,424.74,2672.41,379.87z"/>
	</g>
	<g>
		<path class="st5" d="M2818.38,312.18V107.93h-0.36c0,68.09,0,136.17,0,204.26H2818.38z"/>
		<path class="st5" d="M2817.62,107.85h-82.15v204.25h0.76v0.07h81.79c0-68.09,0-136.17,0-204.26h-0.41V107.85z"/>
		<polygon class="st5" points="2031.78,312.11 2031.78,234.29 2031.78,165.94 2031.78,16.44 2031.02,16.44 2031.02,16.36 
			1948.46,16.36 1948.46,312.04 1948.56,312.04 1949.22,312.04 1949.22,312.04 1949.22,312.11 		"/>
		<g>
			<polygon class="st5" points="2702.36,312.11 2701.63,107.9 2700.87,107.9 2700.87,107.83 2623.94,107.83 2570.97,202.34 
				2524.17,107.9 2523.44,107.9 2523.41,107.83 2436.67,107.83 2436.67,312.03 2437.43,312.03 2437.43,312.11 2511.11,312.11 
				2511.11,220.15 2550.99,295.99 2551.71,295.99 2551.75,296.06 2586.23,296.06 2627.57,222 2627.93,312.03 2628.69,312.03 
				2628.69,312.11 			"/>
			<path class="st5" d="M2372.44,128.17c-4.27-3.73-9.01-7.01-14.17-9.87c-17.05-9.46-38.93-14.21-65.67-14.21
				c-15.97,0-32,2.05-48.09,6.16c-16.09,4.11-29.82,9.77-41.19,16.99l26.13,55.63c6.53-4.98,14.39-8.9,23.59-11.76
				c9.19-2.86,18.26-4.29,27.22-4.29c22.26,0,34.72,7.97,37.38,23.89h-33.02c-30.49,0-53.23,5.23-68.23,15.68
				c-15.01,10.45-22.5,25.76-22.5,45.92c0,11.95,2.84,22.72,8.53,32.29c5.68,9.59,14.03,17.18,25.04,22.78
				c11.01,5.6,24.37,8.4,40.1,8.4c28.06,0,46.82-10.2,56.25-30.61v26.88h34.46h41.75V202.28
				C2400.02,168.93,2390.83,144.23,2372.44,128.17z M2318,245.58c-2.18,6.48-5.56,11.33-10.16,14.56c-4.6,3.24-9.8,4.85-15.61,4.85
				c-6.05,0-10.83-1.55-14.34-4.67c-3.51-3.11-5.26-7.03-5.26-11.76c0-11.45,8.34-17.17,25.04-17.17H2318V245.58z"/>
		</g>
		<path class="st2" d="M2735.4,53.23c0,20.39,18.35,36.91,40.98,36.91c22.63,0,40.98-16.53,40.98-36.91
			c0-20.39-18.34-36.92-40.98-36.92C2753.75,16.32,2735.4,32.84,2735.4,53.23z"/>
		<path class="st2" d="M2055.07,264.15c12.42,16.01,24.7,31.98,36.84,47.89h99.07l-88.55-115.73l82.01-88.48h-96.89l-55.78,58.11
			v68.35C2039.53,244.19,2047.3,254.14,2055.07,264.15z"/>
	</g>
</g>
</svg>
