<svg version="1.1" id="Слой_1" xmlns="http://www.w3.org/2000/svg" x="0" y="0" viewBox="0 0 652.88 263.65" xml:space="preserve"><style>.st0{fill:#273583}.st1{fill:#e62e35}.st2{fill:none}.st3{fill:#fff}.st4{fill:#283583}</style><path class="st0" d="M478.43 196.21v-71.25h-.12v71.25h.12z"/><path class="st0" d="M478.16 124.94h-28.65v71.25h.27v.03h28.53v-71.25h-.14v-.03zM204.05 196.19V93.06h-.26v-.03h-28.8v103.13h.27v.03zM437.96 196.19l-.26-71.23h-.26v-.03H410.6l-18.47 32.97-16.33-32.94h-.25l-.01-.03h-30.26v71.23h.27v.03h25.7v-32.08l13.91 26.46h.25l.01.02h12.03l14.42-25.83.12 31.4h.27v.03zM322.88 132.03a28.61 28.61 0 00-4.94-3.44c-5.95-3.3-13.58-4.96-22.9-4.96-5.57 0-11.16.72-16.77 2.15-5.61 1.43-10.4 3.41-14.37 5.93l9.11 19.4c2.28-1.74 5.02-3.1 8.23-4.1 3.21-1 6.37-1.5 9.49-1.5 7.76 0 12.11 2.78 13.04 8.33h-11.52c-10.63 0-18.57 1.82-23.8 5.47-5.23 3.65-7.85 8.98-7.85 16.02 0 4.17.99 7.92 2.97 11.26 1.98 3.34 4.89 5.99 8.73 7.94 3.84 1.95 8.5 2.93 13.99 2.93 9.79 0 16.33-3.56 19.62-10.68v9.38h26.58v-38.28c.01-11.63-3.2-20.25-9.61-25.85zm-18.99 40.95c-.76 2.26-1.94 3.95-3.54 5.08s-3.42 1.69-5.44 1.69c-2.11 0-3.78-.54-5-1.63-1.22-1.09-1.83-2.45-1.83-4.1 0-3.99 2.91-5.99 8.73-5.99h7.09v4.95z"/><path class="st1" d="M449.48 105.89c0 7.11 6.4 12.88 14.29 12.88 7.9 0 14.29-5.77 14.29-12.88 0-7.11-6.4-12.88-14.29-12.88-7.89 0-14.29 5.77-14.29 12.88zM212.18 179.46c4.33 5.59 8.62 11.15 12.85 16.7h34.56L228.7 155.8l28.61-30.86h-33.8l-19.46 20.27v23.84c2.71 3.45 5.42 6.92 8.13 10.41z"/><path class="st2" d="M421.2 35.99c21.47 1.31 35.94 2.8 40.2 3.26-12.87-1.47-26.31-2.57-40.2-3.26z"/><path class="st1" d="M52.44 209.43c.03-.03.06-.07.09-.1 0 0-.11-.07-.32-.2.08.11.15.2.23.3z"/><path class="st3" d="M43.71 98.16C150.99 28.53 338.3 30.93 421.2 35.99c13.89.69 27.32 1.79 40.2 3.26.86.09 1.31.15 1.31.15-31.5-5.44-65.81-9.08-101.91-10.56-12-.49-24.2-.74-36.56-.74-12.65 0-25.13.26-37.4.78-24.67 1.03-48.48 3.08-71.14 6.02-34.11 4.42-65.58 10.87-93.32 18.94C48.35 75.39.92 108.54.92 145.72c0 23.48 18.93 45.35 51.52 63.71 0 0-1.14-.74-2.98-2.15-15.32-10.64-79.83-61.05-5.75-109.12z"/><path class="st3" d="M49.46 207.29c1.84 1.4 2.98 2.15 2.98 2.15-.08-.1-.15-.2-.22-.3-.47-.3-1.43-.93-2.76-1.85z"/><path class="st0" d="M52.12 209.01c.14.11.27.22.41.32-.45-.51-.88-1.02-1.32-1.53.3.41.6.81.91 1.21zM57.6 102.8c51.14-35.46 133.11-54 227.28-61.26 2.42-.31 4.85-.6 7.29-.89 7.61-.89 15.3-1.68 23.08-2.37a822.15 822.15 0 0139.09-2.53c23.16-.94 45.55-.82 66.86.24-82.91-5.06-270.21-7.46-377.5 62.17-74.08 48.08-9.56 98.48 5.75 109.13-13.3-10.13-63.59-54.74 8.15-104.49zM462.72 39.4s-.45-.05-1.31-.15c.43.06.87.1 1.31.15z"/><path class="st0" d="M52.21 209.14c.2.13.32.2.32.2-.14-.11-.27-.22-.41-.32.03.03.06.07.09.12z"/><path class="st1" d="M57.6 102.8c-71.74 49.75-21.45 94.36-8.14 104.49 1.33.93 2.29 1.55 2.76 1.85l-.09-.12c-13.89-10.92-22.07-23.41-23.22-37.13-.03-.36-.05-.73-.07-1.09-1.89-33.68 38.92-67.43 104.48-92.86 16.4-6.36 34.35-12.19 53.57-17.38 2.13-.57 4.27-1.14 6.42-1.7 28.22-7.3 59.03-13.2 91.58-17.31C190.71 48.8 108.74 67.34 57.6 102.8z"/><g><path class="st2" d="M229.62 254.74c-21.47-1.31-35.94-2.8-40.2-3.26 12.88 1.47 26.31 2.57 40.2 3.26z"/><path class="st1" d="M598.39 81.3c-.03.03-.06.07-.09.1 0 0 .11.07.32.2-.08-.11-.16-.2-.23-.3z"/><path class="st1" d="M607.12 192.57c-107.29 69.62-294.59 67.23-377.5 62.17-13.89-.69-27.32-1.79-40.2-3.26-.86-.09-1.31-.15-1.31-.15 31.5 5.44 65.81 9.08 101.91 10.56 12 .49 24.2.74 36.56.74 12.65 0 25.13-.26 37.4-.78 24.67-1.03 48.48-3.08 71.14-6.02 34.11-4.42 65.58-10.87 93.32-18.94 74.04-21.55 121.47-54.7 121.47-91.88 0-23.48-18.93-45.35-51.52-63.71 0 0 1.14.74 2.98 2.15 15.31 10.64 79.83 61.05 5.75 109.12z"/><path class="st3" d="M601.37 83.44c-1.84-1.4-2.98-2.15-2.98-2.15.08.1.15.2.22.3.47.3 1.42.92 2.76 1.85z"/><path class="st0" d="M598.71 81.72c-.14-.11-.27-.22-.41-.32.45.51.88 1.02 1.32 1.53-.3-.41-.61-.81-.91-1.21zM593.23 187.93c-51.14 35.46-133.11 54-227.28 61.26-2.42.31-4.85.6-7.29.89-7.61.89-15.3 1.68-23.08 2.37a822.15 822.15 0 01-39.09 2.53c-23.16.94-45.54.82-66.86-.24 82.91 5.06 270.21 7.46 377.5-62.17 74.08-48.07 9.56-98.48-5.75-109.13 13.29 10.13 63.58 54.74-8.15 104.49zM188.11 251.33s.45.05 1.31.15c-.43-.06-.88-.1-1.31-.15z"/><path class="st0" d="M598.61 81.59c-.2-.13-.32-.2-.32-.2.14.11.27.22.41.32-.03-.03-.06-.08-.09-.12z"/><path class="st3" d="M601.37 83.44c-1.33-.93-2.29-1.55-2.76-1.85l.09.12c13.89 10.92 22.07 23.41 23.22 37.13.03.36.05.73.07 1.09 1.89 33.68-38.92 67.43-104.48 92.86-16.4 6.36-34.35 12.19-53.57 17.38-2.13.57-4.27 1.14-6.42 1.7-28.22 7.3-59.03 13.2-91.58 17.31 94.18-7.26 176.15-25.8 227.28-61.26 71.74-49.74 21.45-94.35 8.15-104.48z"/></g><g><path class="st4" d="M516.83 49.7v29.84h-20.14V66.76h-52.41V1.49h21.64V49.7h20.7V1.49h21.63V49.7zM576.51 1.49v17.07h-19.12v48.2h-21.63v-48.2h-19.12V1.49zM616.14 68.26c-5.35 0-10.27-.84-14.78-2.52-4.51-1.68-8.41-4.06-11.7-7.13a32.85 32.85 0 01-7.69-10.86c-1.83-4.16-2.75-8.7-2.75-13.61 0-4.97.92-9.53 2.75-13.66 1.83-4.13 4.4-7.74 7.69-10.82s7.2-5.46 11.7-7.13c4.51-1.68 9.4-2.52 14.69-2.52 5.35 0 10.26.84 14.73 2.52 4.48 1.68 8.36 4.06 11.66 7.13 3.29 3.08 5.86 6.68 7.69 10.82 1.83 4.13 2.75 8.69 2.75 13.66 0 4.91-.92 9.45-2.75 13.61-1.83 4.17-4.4 7.79-7.69 10.86-3.29 3.08-7.18 5.46-11.66 7.13-4.48 1.68-9.36 2.52-14.64 2.52zm-.1-17.81c2.05 0 3.96-.37 5.74-1.12 1.77-.75 3.32-1.82 4.66-3.22 1.34-1.4 2.38-3.11 3.12-5.13.75-2.02 1.12-4.3 1.12-6.85s-.37-4.83-1.12-6.85c-.75-2.02-1.79-3.73-3.12-5.13-1.34-1.4-2.89-2.47-4.66-3.22s-3.68-1.12-5.74-1.12c-2.05 0-3.96.37-5.73 1.12-1.77.75-3.33 1.82-4.66 3.22-1.34 1.4-2.38 3.11-3.12 5.13-.75 2.02-1.12 4.31-1.12 6.85s.37 4.83 1.12 6.85c.75 2.02 1.79 3.73 3.12 5.13 1.34 1.4 2.89 2.47 4.66 3.22 1.77.74 3.68 1.12 5.73 1.12z"/></g></svg>