<?xml version="1.0" encoding="utf-8"?>
<!-- Generator: Adobe Illustrator 26.3.1, SVG Export Plug-In . SVG Version: 6.00 Build 0)  -->
<svg version="1.1" id="Слой_1" xmlns="http://www.w3.org/2000/svg" xmlns:xlink="http://www.w3.org/1999/xlink" x="0px" y="0px"
	 viewBox="0 0 652.88 263.65" style="enable-background:new 0 0 652.88 263.65;" xml:space="preserve">
<style type="text/css">
	.st0{fill:#273583;}
	.st1{fill:#E62E35;}
	.st2{fill:none;}
	.st3{fill:#FFFFFF;}
	.st4{fill:#283583;}
</style>
<g>
	<path class="st0" d="M478.43,196.21v-71.25h-0.12c0,23.75,0,47.5,0,71.25H478.43z"/>
	<path class="st0" d="M478.16,124.94h-28.65v71.25h0.27v0.03h28.53c0-23.75,0-47.5,0-71.25h-0.14V124.94z"/>
	<polygon class="st0" points="204.05,196.19 204.05,169.05 204.05,145.2 204.05,93.06 203.79,93.06 203.79,93.03 174.99,93.03 
		174.99,196.16 175.03,196.16 175.26,196.16 175.26,196.16 175.26,196.19 	"/>
	<g>
		<polygon class="st0" points="437.96,196.19 437.7,124.96 437.44,124.96 437.44,124.93 410.6,124.93 392.13,157.9 375.8,124.96 
			375.55,124.96 375.54,124.93 345.28,124.93 345.28,196.16 345.55,196.16 345.55,196.19 371.25,196.19 371.25,164.11 
			385.16,190.57 385.41,190.57 385.42,190.59 397.45,190.59 411.87,164.76 411.99,196.16 412.26,196.16 412.26,196.19 		"/>
		<path class="st0" d="M322.88,132.03c-1.49-1.3-3.14-2.44-4.94-3.44c-5.95-3.3-13.58-4.96-22.9-4.96c-5.57,0-11.16,0.72-16.77,2.15
			c-5.61,1.43-10.4,3.41-14.37,5.93l9.11,19.4c2.28-1.74,5.02-3.1,8.23-4.1c3.21-1,6.37-1.5,9.49-1.5c7.76,0,12.11,2.78,13.04,8.33
			h-11.52c-10.63,0-18.57,1.82-23.8,5.47c-5.23,3.65-7.85,8.98-7.85,16.02c0,4.17,0.99,7.92,2.97,11.26
			c1.98,3.34,4.89,5.99,8.73,7.94c3.84,1.95,8.5,2.93,13.99,2.93c9.79,0,16.33-3.56,19.62-10.68v9.38h12.02h14.56v-38.28
			C332.5,146.25,329.29,137.63,322.88,132.03z M303.89,172.98c-0.76,2.26-1.94,3.95-3.54,5.08c-1.6,1.13-3.42,1.69-5.44,1.69
			c-2.11,0-3.78-0.54-5-1.63c-1.22-1.09-1.83-2.45-1.83-4.1c0-3.99,2.91-5.99,8.73-5.99h7.09V172.98z"/>
	</g>
	<path class="st1" d="M449.48,105.89c0,7.11,6.4,12.88,14.29,12.88c7.9,0,14.29-5.77,14.29-12.88c0-7.11-6.4-12.88-14.29-12.88
		C455.88,93.01,449.48,98.78,449.48,105.89z"/>
	<path class="st1" d="M212.18,179.46c4.33,5.59,8.62,11.15,12.85,16.7h34.56L228.7,155.8l28.61-30.86h-33.8l-19.46,20.27v23.84
		C206.76,172.5,209.47,175.97,212.18,179.46z"/>
	<g>
		<path class="st2" d="M421.2,35.99c21.47,1.31,35.94,2.8,40.2,3.26C448.53,37.78,435.09,36.68,421.2,35.99z"/>
		<path class="st1" d="M52.44,209.43c0.03-0.03,0.06-0.07,0.09-0.1c0,0-0.11-0.07-0.32-0.2C52.29,209.24,52.36,209.33,52.44,209.43z
			"/>
		<path class="st3" d="M43.71,98.16C150.99,28.53,338.3,30.93,421.2,35.99c13.89,0.69,27.32,1.79,40.2,3.26
			c0.86,0.09,1.31,0.15,1.31,0.15c-31.5-5.44-65.81-9.08-101.91-10.56c-12-0.49-24.2-0.74-36.56-0.74c-12.65,0-25.13,0.26-37.4,0.78
			c-24.67,1.03-48.48,3.08-71.14,6.02c-34.11,4.42-65.58,10.87-93.32,18.94C48.35,75.39,0.92,108.54,0.92,145.72
			c0,23.48,18.93,45.35,51.52,63.71c0,0-1.14-0.74-2.98-2.15C34.14,196.64-30.37,146.23,43.71,98.16z"/>
		<path class="st3" d="M49.46,207.29c1.84,1.4,2.98,2.15,2.98,2.15c-0.08-0.1-0.15-0.2-0.22-0.3
			C51.75,208.84,50.79,208.21,49.46,207.29z"/>
		<path class="st0" d="M52.12,209.01c0.14,0.11,0.27,0.22,0.41,0.32c-0.45-0.51-0.88-1.02-1.32-1.53
			C51.51,208.21,51.81,208.61,52.12,209.01z"/>
		<path class="st0" d="M57.6,102.8c51.14-35.46,133.11-54,227.28-61.26c2.42-0.31,4.85-0.6,7.29-0.89
			c7.61-0.89,15.3-1.68,23.08-2.37c13.23-1.17,26.27-2.01,39.09-2.53c23.16-0.94,45.55-0.82,66.86,0.24
			c-82.91-5.06-270.21-7.46-377.5,62.17c-74.08,48.08-9.56,98.48,5.75,109.13C36.15,197.16-14.14,152.55,57.6,102.8z"/>
		<path class="st0" d="M462.72,39.4c0,0-0.45-0.05-1.31-0.15C461.84,39.31,462.28,39.35,462.72,39.4z"/>
		<path class="st0" d="M52.21,209.14c0.2,0.13,0.32,0.2,0.32,0.2c-0.14-0.11-0.27-0.22-0.41-0.32
			C52.15,209.05,52.18,209.09,52.21,209.14z"/>
		<path class="st1" d="M57.6,102.8c-71.74,49.75-21.45,94.36-8.14,104.49c1.33,0.93,2.29,1.55,2.76,1.85
			c-0.03-0.04-0.06-0.08-0.09-0.12c-13.89-10.92-22.07-23.41-23.22-37.13c-0.03-0.36-0.05-0.73-0.07-1.09
			c-1.89-33.68,38.92-67.43,104.48-92.86c16.4-6.36,34.35-12.19,53.57-17.38c2.13-0.57,4.27-1.14,6.42-1.7
			c28.22-7.3,59.03-13.2,91.58-17.31C190.71,48.8,108.74,67.34,57.6,102.8z"/>
	</g>
	<g>
		<path class="st2" d="M229.62,254.74c-21.47-1.31-35.94-2.8-40.2-3.26C202.3,252.95,215.73,254.05,229.62,254.74z"/>
		<path class="st1" d="M598.39,81.3c-0.03,0.03-0.06,0.07-0.09,0.1c0,0,0.11,0.07,0.32,0.2C598.54,81.49,598.46,81.4,598.39,81.3z"
			/>
		<path class="st1" d="M607.12,192.57c-107.29,69.62-294.59,67.23-377.5,62.17c-13.89-0.69-27.32-1.79-40.2-3.26
			c-0.86-0.09-1.31-0.15-1.31-0.15c31.5,5.44,65.81,9.08,101.91,10.56c12,0.49,24.2,0.74,36.56,0.74c12.65,0,25.13-0.26,37.4-0.78
			c24.67-1.03,48.48-3.08,71.14-6.02c34.11-4.42,65.58-10.87,93.32-18.94c74.04-21.55,121.47-54.7,121.47-91.88
			c0-23.48-18.93-45.35-51.52-63.71c0,0,1.14,0.74,2.98,2.15C616.68,94.09,681.2,144.5,607.12,192.57z"/>
		<path class="st3" d="M601.37,83.44c-1.84-1.4-2.98-2.15-2.98-2.15c0.08,0.1,0.15,0.2,0.22,0.3
			C599.08,81.89,600.03,82.51,601.37,83.44z"/>
		<path class="st0" d="M598.71,81.72c-0.14-0.11-0.27-0.22-0.41-0.32c0.45,0.51,0.88,1.02,1.32,1.53
			C599.32,82.52,599.01,82.12,598.71,81.72z"/>
		<path class="st0" d="M593.23,187.93c-51.14,35.46-133.11,54-227.28,61.26c-2.42,0.31-4.85,0.6-7.29,0.89
			c-7.61,0.89-15.3,1.68-23.08,2.37c-13.23,1.17-26.27,2.01-39.09,2.53c-23.16,0.94-45.54,0.82-66.86-0.24
			c82.91,5.06,270.21,7.46,377.5-62.17c74.08-48.07,9.56-98.48-5.75-109.13C614.67,93.57,664.96,138.18,593.23,187.93z"/>
		<path class="st0" d="M188.11,251.33c0,0,0.45,0.05,1.31,0.15C188.99,251.42,188.54,251.38,188.11,251.33z"/>
		<path class="st0" d="M598.61,81.59c-0.2-0.13-0.32-0.2-0.32-0.2c0.14,0.11,0.27,0.22,0.41,0.32
			C598.67,81.68,598.64,81.63,598.61,81.59z"/>
		<path class="st3" d="M601.37,83.44c-1.33-0.93-2.29-1.55-2.76-1.85c0.03,0.04,0.06,0.08,0.09,0.12
			c13.89,10.92,22.07,23.41,23.22,37.13c0.03,0.36,0.05,0.73,0.07,1.09c1.89,33.68-38.92,67.43-104.48,92.86
			c-16.4,6.36-34.35,12.19-53.57,17.38c-2.13,0.57-4.27,1.14-6.42,1.7c-28.22,7.3-59.03,13.2-91.58,17.31
			c94.18-7.26,176.15-25.8,227.28-61.26C664.96,138.18,614.67,93.57,601.37,83.44z"/>
	</g>
</g>
<g>
	<polygon class="st4" points="516.83,49.7 516.83,79.54 496.69,79.54 496.69,66.76 444.28,66.76 444.28,1.49 465.92,1.49 
		465.92,49.7 486.62,49.7 486.62,1.49 508.25,1.49 508.25,49.7 	"/>
	<polygon class="st4" points="576.51,1.49 576.51,18.56 557.39,18.56 557.39,66.76 535.76,66.76 535.76,18.56 516.64,18.56 
		516.64,1.49 	"/>
	<path class="st4" d="M616.14,68.26c-5.35,0-10.27-0.84-14.78-2.52c-4.51-1.68-8.41-4.06-11.7-7.13c-3.29-3.08-5.86-6.7-7.69-10.86
		c-1.83-4.16-2.75-8.7-2.75-13.61c0-4.97,0.92-9.53,2.75-13.66c1.83-4.13,4.4-7.74,7.69-10.82c3.29-3.08,7.2-5.46,11.7-7.13
		c4.51-1.68,9.4-2.52,14.69-2.52c5.35,0,10.26,0.84,14.73,2.52c4.48,1.68,8.36,4.06,11.66,7.13c3.29,3.08,5.86,6.68,7.69,10.82
		c1.83,4.13,2.75,8.69,2.75,13.66c0,4.91-0.92,9.45-2.75,13.61c-1.83,4.17-4.4,7.79-7.69,10.86c-3.29,3.08-7.18,5.46-11.66,7.13
		C626.3,67.42,621.42,68.26,616.14,68.26z M616.04,50.45c2.05,0,3.96-0.37,5.74-1.12c1.77-0.75,3.32-1.82,4.66-3.22
		c1.34-1.4,2.38-3.11,3.12-5.13c0.75-2.02,1.12-4.3,1.12-6.85s-0.37-4.83-1.12-6.85c-0.75-2.02-1.79-3.73-3.12-5.13
		c-1.34-1.4-2.89-2.47-4.66-3.22c-1.77-0.75-3.68-1.12-5.74-1.12c-2.05,0-3.96,0.37-5.73,1.12c-1.77,0.75-3.33,1.82-4.66,3.22
		c-1.34,1.4-2.38,3.11-3.12,5.13c-0.75,2.02-1.12,4.31-1.12,6.85s0.37,4.83,1.12,6.85c0.75,2.02,1.79,3.73,3.12,5.13
		c1.34,1.4,2.89,2.47,4.66,3.22C612.08,50.07,613.99,50.45,616.04,50.45z"/>
</g>
</svg>
