<svg version="1.1" id="Слой_1" xmlns="http://www.w3.org/2000/svg" x="0" y="0" viewBox="0 0 2904.89 1191.11" xml:space="preserve"><style>.st0{fill:#283583}.st1{fill:none}.st2{fill:#e62e35}.st3{fill:#ededed;stroke:#273583;stroke-miterlimit:10}.st4{fill:#fff}.st5{fill:#273583}</style><path class="st0" d="M1226.36 768.29h56.71l-39.45 197.26h-133.16l16.03-84.45H780.67l86.31-431.52H1010l-63.5 318.71h136.85l63.5-318.71h143.02l-63.51 318.71zM1718.91 562.39h-128.22l-62.26 318.71h-143.02l62.26-318.71h-124.52l22.19-112.81h395.76l-22.19 112.81zM1819.08 866.61c-33.08-16.23-58.56-38.93-76.44-68.12-17.87-29.17-26.82-62.67-26.82-100.48 0-50.13 11.61-94.83 34.83-134.08 23.21-39.24 55.48-69.76 96.78-91.55 41.3-21.78 88.04-32.67 140.24-32.67 43.97 0 82.5 8.12 115.58 24.35 33.08 16.24 58.56 38.94 76.44 68.12 17.87 29.19 26.82 62.68 26.82 100.48 0 50.14-11.62 94.84-34.83 134.08-23.22 39.25-55.48 69.76-96.78 91.54-41.3 21.79-88.06 32.67-140.24 32.67-43.97.01-82.5-8.11-115.58-24.34zm188.02-111.27c17.05-11.91 30.1-27.94 39.14-48.08 9.03-20.13 13.56-42.12 13.56-65.96 0-25.48-7.51-45.82-22.5-61.03-15.01-15.2-35.66-22.81-61.96-22.81-23.02 0-43.05 5.96-60.1 17.88-17.06 11.92-30.11 27.95-39.14 48.08-9.05 20.14-13.56 42.13-13.56 65.96 0 25.49 7.49 45.83 22.5 61.03 15 15.21 35.65 22.81 61.96 22.81 23.01 0 43.04-5.95 60.1-17.88z"/><path class="st1" d="M1873.81 169.54c95.15 5.81 159.29 12.41 178.2 14.47-57.08-6.56-116.62-11.41-178.2-14.47z"/><path class="st2" d="M239.24 938.33c.13-.15.27-.29.4-.43 0 0-.49-.31-1.4-.88.34.44.66.87 1 1.31z"/><path class="st3" d="M200.54 445.1c475.55-308.61 1305.79-298 1673.27-275.56 61.58 3.07 121.12 7.92 178.2 14.47 3.83.42 5.83.65 5.83.65-139.64-24.11-291.7-40.25-451.73-46.8a3958.37 3958.37 0 00-162.04-3.3c-56.08 0-111.4 1.17-165.8 3.45-109.33 4.58-214.9 13.65-315.32 26.67-151.2 19.6-290.71 48.16-413.64 83.95-328.2 95.54-538.42 242.48-538.42 407.29 0 104.09 83.9 201.04 228.35 282.42 0 0-5.04-3.29-13.21-9.51-67.88-47.2-353.86-270.63-25.49-483.73z"/><path class="st4" d="M226.03 928.82c8.17 6.22 13.21 9.51 13.21 9.51-.34-.44-.66-.88-.99-1.32-2.06-1.31-6.31-4.08-12.22-8.19z"/><path class="st5" d="M237.83 936.47c.6.48 1.2.96 1.81 1.43a851.19 851.19 0 01-5.84-6.78c1.33 1.78 2.68 3.56 4.03 5.35zM262.12 465.68c226.67-157.19 590.01-239.37 1007.45-271.55 10.74-1.35 21.51-2.68 32.33-3.94 33.72-3.95 67.83-7.46 102.29-10.51 58.62-5.19 116.46-8.9 173.26-11.19 102.64-4.15 201.88-3.64 296.35 1.06C1506.33 147.1 676.09 136.49 200.54 445.1c-328.36 213.1-42.38 436.53 25.49 483.72-58.98-44.88-281.88-242.63 36.09-463.14zM2057.84 184.66s-2-.23-5.83-.65c1.94.22 3.9.42 5.83.65z"/><path class="st5" d="M238.25 937.02c.9.58 1.4.88 1.4.88-.61-.47-1.2-.95-1.81-1.43.13.18.27.36.41.55z"/><path class="st2" d="M262.12 465.68c-317.98 220.52-95.07 418.27-36.09 463.14 5.91 4.11 10.17 6.88 12.22 8.2-.14-.18-.27-.37-.41-.55C176.25 888.06 140 832.7 134.91 771.89c-.13-1.62-.22-3.23-.31-4.84-8.39-149.3 172.51-298.88 463.11-411.59 72.69-28.19 152.27-54.05 237.44-77.05 9.43-2.55 18.91-5.07 28.48-7.54 125.1-32.36 261.67-58.53 405.95-76.74-417.45 32.18-780.79 114.36-1007.46 271.55z"/><g><path class="st1" d="M1024.63 1139.15c-95.15-5.81-159.29-12.41-178.2-14.47 57.09 6.55 116.63 11.4 178.2 14.47z"/><path class="st2" d="M2659.2 370.36l-.4.43s.49.3 1.4.88c-.34-.44-.66-.87-1-1.31z"/><path class="st2" d="M2697.91 863.59c-475.55 308.61-1305.79 298-1673.27 275.56-61.58-3.07-121.12-7.92-178.2-14.47-3.83-.42-5.83-.65-5.83-.65 139.64 24.11 291.7 40.25 451.73 46.8 53.19 2.18 107.25 3.3 162.04 3.3 56.08 0 111.4-1.17 165.8-3.45 109.33-4.58 214.9-13.65 315.32-26.67 151.2-19.6 290.71-48.16 413.64-83.95 328.2-95.54 538.42-242.48 538.42-407.28 0-104.09-83.9-201.04-228.35-282.42 0 0 5.04 3.29 13.21 9.51 67.87 47.19 353.85 270.62 25.49 483.72z"/><path class="st4" d="M2672.41 379.87c-8.17-6.22-13.21-9.51-13.21-9.51.34.44.66.88.99 1.32 2.06 1.3 6.31 4.08 12.22 8.19z"/><path class="st5" d="M2660.61 372.22c-.61-.48-1.2-.96-1.81-1.43 1.98 2.27 3.91 4.52 5.84 6.78-1.32-1.78-2.67-3.56-4.03-5.35zM2636.32 843.01c-226.67 157.19-590.01 239.37-1007.45 271.55-10.74 1.35-21.51 2.68-32.33 3.94a3630.23 3630.23 0 01-102.29 10.51c-58.62 5.19-116.46 8.9-173.26 11.19-102.64 4.15-201.88 3.64-296.35-1.06 367.49 22.44 1197.73 33.05 1673.27-275.56 328.36-213.1 42.38-436.53-25.49-483.72 58.97 44.88 281.88 242.64-36.1 463.15zM840.61 1124.03s2 .23 5.83.65c-1.94-.22-3.91-.43-5.83-.65z"/><path class="st5" d="M2660.2 371.67c-.9-.58-1.4-.88-1.4-.88.61.47 1.2.95 1.81 1.43-.14-.18-.27-.36-.41-.55z"/><path class="st3" d="M2672.41 379.87c-5.91-4.11-10.16-6.88-12.22-8.2.14.18.27.37.41.55 61.59 48.41 97.84 103.77 102.93 164.58.13 1.62.22 3.23.31 4.84 8.39 149.3-172.51 298.88-463.11 411.59-72.69 28.19-152.27 54.05-237.44 77.05-9.43 2.55-18.91 5.07-28.48 7.54-125.1 32.36-261.67 58.53-405.95 76.74 417.44-32.18 780.78-114.36 1007.45-271.55 317.99-220.51 95.08-418.27 36.1-463.14z"/></g><g><path class="st5" d="M2818.38 312.18V107.93h-.36v204.26h.36zM2817.62 107.85h-82.15V312.1h.76v.07h81.79V107.91h-.41v-.06zM2031.78 312.11V16.44h-.76v-.08h-82.56v295.68h.76v.07zM2702.36 312.11l-.73-204.21h-.76v-.07h-76.93l-52.97 94.51-46.8-94.44h-.73l-.03-.07h-86.74v204.2h.76v.08h73.68v-91.96l39.88 75.84h.72l.04.07h34.48l41.34-74.06.36 90.03h.76v.08zM2372.44 128.17c-4.27-3.73-9.01-7.01-14.17-9.87-17.05-9.46-38.93-14.21-65.67-14.21-15.97 0-32 2.05-48.09 6.16-16.09 4.11-29.82 9.77-41.19 16.99l26.13 55.63c6.53-4.98 14.39-8.9 23.59-11.76 9.19-2.86 18.26-4.29 27.22-4.29 22.26 0 34.72 7.97 37.38 23.89h-33.02c-30.49 0-53.23 5.23-68.23 15.68-15.01 10.45-22.5 25.76-22.5 45.92 0 11.95 2.84 22.72 8.53 32.29 5.68 9.59 14.03 17.18 25.04 22.78 11.01 5.6 24.37 8.4 40.1 8.4 28.06 0 46.82-10.2 56.25-30.61v26.88H2400.02V202.28c0-33.35-9.19-58.05-27.58-74.11zM2318 245.58c-2.18 6.48-5.56 11.33-10.16 14.56-4.6 3.24-9.8 4.85-15.61 4.85-6.05 0-10.83-1.55-14.34-4.67-3.51-3.11-5.26-7.03-5.26-11.76 0-11.45 8.34-17.17 25.04-17.17H2318v14.19z"/><path class="st2" d="M2735.4 53.23c0 20.39 18.35 36.91 40.98 36.91 22.63 0 40.98-16.53 40.98-36.91 0-20.39-18.34-36.92-40.98-36.92-22.63.01-40.98 16.53-40.98 36.92zM2055.07 264.15c12.42 16.01 24.7 31.98 36.84 47.89h99.07l-88.55-115.73 82.01-88.48h-96.89l-55.78 58.11v68.35c7.76 9.9 15.53 19.85 23.3 29.86z"/></g></svg>